<svg xmlns="http://www.w3.org/2000/svg" width="56.1" height="54.597" fill="none">
  <rect width="100%" height="100%"/>
  <defs>
    <linearGradient id="b" y1=".5" x2=".999" y2=".5">
      <stop stop-color="#00BA95"/>
      <stop offset=".52" stop-color="#00D9AD"/>
      <stop offset="1" stop-color="#00D9AD"/>
    </linearGradient>
    <linearGradient id="c" x1=".001" y1=".5" x2="1.001" y2=".5">
      <stop stop-color="#008D85"/>
      <stop offset="1" stop-color="#00FFDE"/>
    </linearGradient>
    <linearGradient id="d" x1=".001" y1=".5" x2="1" y2=".5">
      <stop stop-color="#008D95"/>
      <stop offset="1" stop-color="#00FFDE"/>
    </linearGradient>
    <linearGradient id="a" x1=".002" y1=".5" x2=".999" y2=".5">
      <stop stop-color="#00BA95"/>
      <stop offset=".52" stop-color="#00D9AD"/>
      <stop offset="1" stop-color="#00F9AB"/>
    </linearGradient>
  </defs>
  <g class="currentLayer">
    <path d="M21.728 24.928l-6.48-11.21-6.53-11.33a4.711 4.711 0 0 0-1.53-1.58h-.1a4.15 4.15 0 0 0-1.58 1.63l-4.9 8.49a3.88 3.88 0 0 0 0 3.92l5.88 10.18c.413.71.621 1.52.6 2.34a5.001 5.001 0 0 1-.6 2.34l-5.83 10.09a3.88 3.88 0 0 0 0 3.92l4.9 8.49a4.54 4.54 0 0 0 1.53 1.63h.05a4.242 4.242 0 0 0 1.58-1.54l6.53-11.32 6.48-11.22a5 5 0 0 0 0-4.83z" fill="url(#a)"/>
    <path opacity=".25" d="M24.088 24.928l-6.5-11.21-6.5-11.33a4.71 4.71 0 0 0-1.52-1.58h-.05a4.15 4.15 0 0 0-1.58 1.63l-4.9 8.49a3.88 3.88 0 0 0 0 3.92l5.88 10.18c.413.71.621 1.52.6 2.34a5 5 0 0 1-.6 2.34l-5.92 10.09a3.88 3.88 0 0 0 0 3.92l4.9 8.49a4.54 4.54 0 0 0 1.58 1.63h.05a4.24 4.24 0 0 0 1.56-1.54l6.5-11.36 6.5-11.22a5 5 0 0 0 0-4.79z" fill="url(#b)"/>
    <path opacity=".25" d="M55.318 24.658l-6.48-11.27-6.69-11.65a4.8 4.8 0 0 0-1.2-1.36 1.33 1.33 0 0 0-.86-.33c-3.43 0-5.77.11-7.51.11-.27 0-.44.33-.38.6l1.69 9.47a.69.69 0 0 1-.05.33 3.92 3.92 0 0 0 .11 3.87l6 10.45a4.81 4.81 0 0 1 .65 2.4 4.81 4.81 0 0 1-.65 2.4l-6.1 10.45a4.06 4.06 0 0 0-.11 3.87.69.69 0 0 1 .05.33l-1.7 9.4c-.05.27.11.6.38.6 1.58 0-.65.16 7.73.16.184-.01.366-.048.54-.11.6-.22 1-.93 1.31-1.52l6.7-11.65 6.48-11.27a5 5 0 0 0 .09-5.28z" fill="url(#c)"/>
    <path d="M52.708 24.928l-13.07-22.54a4.74 4.74 0 0 0-4-2.34h-26a4.92 4.92 0 0 0-2.55.71v.05a4.24 4.24 0 0 1 1.52 1.58l6.53 11.32a4.892 4.892 0 0 1 2-.44h10.8a4.56 4.56 0 0 1 4 2.34l5.39 9.31a4.78 4.78 0 0 1 0 4.68l-5.34 9.36a4.74 4.74 0 0 1-4 2.34h-10.72a4.698 4.698 0 0 1-2-.44l-6.5 11.35a4.71 4.71 0 0 1-1.52 1.58v.05c.737.455 1.584.7 2.45.71h26.08a4.559 4.559 0 0 0 4-2.34l12.9-22.59a4.78 4.78 0 0 0 .03-4.69z" fill="url(#d)"/>
  </g>
</svg>
